<svg width="136" height="62" viewBox="0 0 136 62" fill="none" xmlns="http://www.w3.org/2000/svg">
<rect x="1.5" y="1.5" width="133" height="59" rx="8.5" stroke="white" stroke-width="3"/>
<path d="M26.968 37.18C25.84 37.18 24.976 36.904 24.376 36.352C23.776 35.8 23.476 34.978 23.476 33.886V32.752C23.476 32.044 23.596 31.498 23.836 31.114C24.076 30.718 24.346 30.346 24.646 29.998C24.826 29.794 24.988 29.608 25.132 29.44C25.276 29.26 25.354 29.08 25.366 28.9L25.312 28.864C25.18 28.96 25.024 29.044 24.844 29.116C24.676 29.176 24.484 29.206 24.268 29.206C23.836 29.206 23.482 29.062 23.206 28.774C22.93 28.474 22.792 28.054 22.792 27.514V27.136H24.196C24.196 27.82 24.388 28.162 24.772 28.162C24.904 28.162 25.042 28.138 25.186 28.09C25.33 28.042 25.462 27.97 25.582 27.874L25.924 27.136H26.806V27.946C26.806 28.294 26.794 28.6 26.77 28.864C26.746 29.128 26.68 29.386 26.572 29.638C26.464 29.878 26.284 30.16 26.032 30.484C25.852 30.712 25.69 30.922 25.546 31.114C25.402 31.294 25.288 31.498 25.204 31.726C25.12 31.954 25.078 32.254 25.078 32.626V33.796C25.078 34.36 25.168 34.792 25.348 35.092C25.528 35.392 25.762 35.596 26.05 35.704C26.338 35.812 26.644 35.866 26.968 35.866C27.592 35.866 28.072 35.728 28.408 35.452C28.744 35.164 28.912 34.726 28.912 34.138V31.618C28.912 30.706 28.474 30.25 27.598 30.25H27.526V29.224H27.616C28.108 29.224 28.456 29.11 28.66 28.882C28.864 28.654 28.984 28.378 29.02 28.054C29.068 27.718 29.092 27.412 29.092 27.136H30.694C30.694 27.772 30.61 28.306 30.442 28.738C30.274 29.17 29.926 29.488 29.398 29.692V29.764C29.854 29.896 30.154 30.136 30.298 30.484C30.442 30.832 30.514 31.264 30.514 31.78V34.228C30.514 35.152 30.208 35.878 29.596 36.406C28.984 36.922 28.108 37.18 26.968 37.18ZM23.2246 25.57V24.868L24.5386 24.292H26.9326V22.834H28.2646V24.292H29.5606V22.834H30.8746V25.57H23.2246ZM26.6548 21.772V21.142C26.8948 21.082 27.1528 20.986 27.4288 20.854C27.6928 20.722 27.8248 20.524 27.8248 20.26C27.8248 19.984 27.6868 19.846 27.4108 19.846C27.2188 19.846 27.0208 19.906 26.8168 20.026L26.4928 19.198C26.7088 19.054 26.9548 18.958 27.2308 18.91C27.4948 18.862 27.7048 18.838 27.8608 18.838C28.1728 18.838 28.4548 18.922 28.7068 19.09C28.9588 19.246 29.0848 19.516 29.0848 19.9C29.0848 19.996 29.0728 20.104 29.0488 20.224C29.0248 20.344 28.9828 20.458 28.9228 20.566H31.1908V21.772H26.6548ZM36.952 37.18C35.656 37.18 34.684 36.844 34.036 36.172C33.4 35.488 33.082 34.42 33.082 32.968C33.082 32.728 33.088 32.47 33.1 32.194C33.124 31.906 33.148 31.624 33.172 31.348H36.952V32.608H34.684V32.968C34.684 33.724 34.768 34.318 34.936 34.75C35.104 35.17 35.35 35.464 35.674 35.632C36.01 35.8 36.424 35.884 36.916 35.884C37.456 35.884 37.924 35.782 38.32 35.578C38.716 35.374 39.022 35.002 39.238 34.462C39.454 33.922 39.562 33.148 39.562 32.14C39.562 30.82 39.334 29.848 38.878 29.224C38.434 28.6 37.66 28.288 36.556 28.288C35.98 28.288 35.428 28.366 34.9 28.522C34.384 28.666 33.886 28.876 33.406 29.152V27.658C33.766 27.466 34.24 27.304 34.828 27.172C35.416 27.028 36.058 26.956 36.754 26.956C37.81 26.956 38.662 27.172 39.31 27.604C39.97 28.024 40.45 28.624 40.75 29.404C41.05 30.172 41.2 31.084 41.2 32.14C41.2 33.196 41.062 34.102 40.786 34.858C40.51 35.614 40.06 36.19 39.436 36.586C38.824 36.982 37.996 37.18 36.952 37.18ZM46.0279 37.18C45.7039 37.18 45.3919 37.126 45.0919 37.018C44.7919 36.91 44.5459 36.718 44.3539 36.442C44.1619 36.166 44.0659 35.782 44.0659 35.29V27.136H45.6679V35.092C45.6679 35.368 45.7279 35.566 45.8479 35.686C45.9679 35.806 46.1599 35.866 46.4239 35.866C46.5319 35.866 46.6459 35.854 46.7659 35.83C46.8859 35.806 46.9999 35.776 47.1079 35.74L47.3239 36.91C47.0959 37.018 46.8739 37.09 46.6579 37.126C46.4419 37.162 46.2319 37.18 46.0279 37.18ZM51.6107 37.18C50.5547 37.18 49.7447 36.94 49.1807 36.46C48.6287 35.968 48.3527 35.266 48.3527 34.354C48.3527 33.358 48.7127 32.59 49.4327 32.05C50.1647 31.51 51.3467 31.192 52.9787 31.096L54.7067 30.988V30.43C54.7067 29.65 54.5267 29.098 54.1667 28.774C53.8187 28.438 53.2307 28.27 52.4027 28.27C51.8027 28.27 51.2267 28.354 50.6747 28.522C50.1347 28.678 49.6187 28.9 49.1267 29.188V27.694C49.4747 27.514 49.9427 27.346 50.5307 27.19C51.1307 27.034 51.8027 26.956 52.5467 26.956C53.8067 26.956 54.7427 27.232 55.3547 27.784C55.9787 28.324 56.2907 29.176 56.2907 30.34V37H54.7067V32.32L53.1947 32.428C51.9707 32.512 51.1247 32.704 50.6567 33.004C50.2007 33.304 49.9727 33.742 49.9727 34.318C49.9727 34.858 50.1407 35.254 50.4767 35.506C50.8247 35.758 51.3047 35.884 51.9167 35.884C52.3127 35.884 52.6607 35.83 52.9607 35.722L53.2127 36.928C52.9847 37.012 52.7327 37.072 52.4567 37.108C52.1927 37.156 51.9107 37.18 51.6107 37.18ZM63.0099 37.162C61.5579 37.162 60.5319 36.886 59.9319 36.334C59.3319 35.782 59.0319 35.038 59.0319 34.102C59.0319 33.55 59.1099 33.112 59.2659 32.788C59.4339 32.452 59.6379 32.206 59.8779 32.05C60.1299 31.894 60.3879 31.792 60.6519 31.744V31.672C60.4119 31.6 60.1599 31.48 59.8959 31.312C59.6319 31.144 59.4099 30.91 59.2299 30.61C59.0619 30.31 58.9779 29.932 58.9779 29.476C58.9779 29.056 59.0739 28.66 59.2659 28.288C59.4579 27.916 59.7699 27.61 60.2019 27.37C60.6339 27.13 61.2039 27.01 61.9119 27.01C62.1999 27.01 62.4999 27.034 62.8119 27.082C63.1239 27.118 63.3639 27.184 63.5319 27.28L63.2439 28.522C63.1119 28.474 62.9379 28.432 62.7219 28.396C62.5179 28.348 62.3019 28.324 62.0739 28.324C61.5699 28.324 61.1979 28.444 60.9579 28.684C60.7179 28.912 60.5979 29.218 60.5979 29.602C60.5979 30.022 60.6999 30.34 60.9039 30.556C61.1199 30.772 61.3899 30.922 61.7139 31.006C62.0499 31.078 62.3979 31.114 62.7579 31.114H63.0999V32.284H62.7579C62.0379 32.284 61.5039 32.416 61.1559 32.68C60.8199 32.932 60.6519 33.358 60.6519 33.958C60.6519 34.306 60.7179 34.624 60.8499 34.912C60.9939 35.2 61.2339 35.428 61.5699 35.596C61.9179 35.764 62.3979 35.848 63.0099 35.848C63.9219 35.848 64.5459 35.662 64.8819 35.29C65.2179 34.906 65.3859 34.384 65.3859 33.724V27.136H66.9879V33.616C66.9879 34.876 66.6639 35.782 66.0159 36.334C65.3799 36.886 64.3779 37.162 63.0099 37.162ZM73.3914 37.18C72.3834 37.18 71.6034 36.952 71.0514 36.496C70.4994 36.028 70.1154 35.398 69.8994 34.606C69.6834 33.802 69.5754 32.89 69.5754 31.87C69.5754 30.118 69.8214 28.864 70.3134 28.108C70.8174 27.34 71.5374 26.956 72.4734 26.956C72.8934 26.956 73.2474 27.028 73.5354 27.172C73.8354 27.316 74.0454 27.556 74.1654 27.892H74.2374C74.3574 27.544 74.5734 27.304 74.8854 27.172C75.1974 27.028 75.5634 26.956 75.9834 26.956C76.7634 26.956 77.3634 27.166 77.7834 27.586C78.2154 27.994 78.4314 28.624 78.4314 29.476V37H76.8294V29.494C76.8294 29.026 76.7274 28.708 76.5234 28.54C76.3194 28.372 76.0614 28.288 75.7494 28.288C75.4014 28.288 75.1434 28.372 74.9754 28.54C74.8194 28.708 74.7234 28.984 74.6874 29.368H73.6794C73.6314 28.948 73.5054 28.666 73.3014 28.522C73.0974 28.366 72.8694 28.288 72.6174 28.288C72.1374 28.288 71.7774 28.57 71.5374 29.134C71.2974 29.686 71.1774 30.604 71.1774 31.888C71.1774 32.716 71.2374 33.424 71.3574 34.012C71.4894 34.6 71.7294 35.056 72.0774 35.38C72.4254 35.692 72.9294 35.848 73.5894 35.848C73.8294 35.848 74.0274 35.836 74.1834 35.812C74.3394 35.788 74.4894 35.758 74.6334 35.722L74.7954 36.946C74.6154 37.03 74.3994 37.09 74.1474 37.126C73.8954 37.162 73.6434 37.18 73.3914 37.18ZM84.8348 37.18C83.5388 37.18 82.5668 36.844 81.9188 36.172C81.2828 35.488 80.9648 34.42 80.9648 32.968C80.9648 32.728 80.9708 32.47 80.9828 32.194C81.0068 31.906 81.0308 31.624 81.0548 31.348H84.8348V32.608H82.5668V32.968C82.5668 33.724 82.6508 34.318 82.8188 34.75C82.9868 35.17 83.2328 35.464 83.5568 35.632C83.8928 35.8 84.3068 35.884 84.7988 35.884C85.3388 35.884 85.8068 35.782 86.2028 35.578C86.5988 35.374 86.9048 35.002 87.1208 34.462C87.3368 33.922 87.4448 33.148 87.4448 32.14C87.4448 30.82 87.2168 29.848 86.7608 29.224C86.3168 28.6 85.5428 28.288 84.4388 28.288C83.8628 28.288 83.3108 28.366 82.7828 28.522C82.2668 28.666 81.7688 28.876 81.2888 29.152V27.658C81.6488 27.466 82.1228 27.304 82.7108 27.172C83.2988 27.028 83.9408 26.956 84.6368 26.956C85.6928 26.956 86.5448 27.172 87.1928 27.604C87.8528 28.024 88.3328 28.624 88.6328 29.404C88.9328 30.172 89.0828 31.084 89.0828 32.14C89.0828 33.196 88.9448 34.102 88.6688 34.858C88.3928 35.614 87.9428 36.19 87.3188 36.586C86.7068 36.982 85.8788 37.18 84.8348 37.18ZM95.0807 37.18C94.0247 37.18 93.1907 36.904 92.5787 36.352C91.9787 35.8 91.6787 34.924 91.6787 33.724V27.136H93.2807V33.634C93.2807 35.098 93.9947 35.83 95.4227 35.83C96.2627 35.83 96.9107 35.56 97.3667 35.02C97.8347 34.48 98.0687 33.754 98.0687 32.842V27.136H99.6707V37H98.3387L98.2667 35.542H98.1767C97.9607 36.022 97.5827 36.418 97.0427 36.73C96.5147 37.03 95.8607 37.18 95.0807 37.18ZM106.12 37.18C105.064 37.18 104.23 36.904 103.618 36.352C103.018 35.8 102.718 34.924 102.718 33.724V27.136H104.32V33.634C104.32 35.098 105.034 35.83 106.462 35.83C107.302 35.83 107.95 35.56 108.406 35.02C108.874 34.48 109.108 33.754 109.108 32.842V27.136H110.71V37H109.378L109.306 35.542H109.216C109 36.022 108.622 36.418 108.082 36.73C107.554 37.03 106.9 37.18 106.12 37.18ZM103.047 25.57V24.868L104.361 24.292H109.203V22.834H110.715V24.868H110.697V25.57H103.047ZM107.655 21.772V21.142C107.895 21.082 108.153 20.986 108.429 20.854C108.693 20.722 108.825 20.524 108.825 20.26C108.825 19.984 108.687 19.846 108.411 19.846C108.219 19.846 108.021 19.906 107.817 20.026L107.493 19.198C107.709 19.054 107.955 18.958 108.231 18.91C108.495 18.862 108.705 18.838 108.861 18.838C109.173 18.838 109.455 18.922 109.707 19.09C109.959 19.246 110.085 19.516 110.085 19.9C110.085 19.996 110.073 20.104 110.049 20.224C110.025 20.344 109.983 20.458 109.923 20.566H112.191V21.772H107.655Z" fill="white"/>
</svg>
