<svg width="29" height="26" viewBox="0 0 29 26" fill="none" xmlns="http://www.w3.org/2000/svg">
<path d="M4.84053 24.4067C6.23869 24.4067 7.37211 23.2733 7.37211 21.8752C7.37211 20.477 6.23869 19.3436 4.84053 19.3436C3.44238 19.3436 2.30896 20.477 2.30896 21.8752C2.30896 23.2733 3.44238 24.4067 4.84053 24.4067Z" stroke="#3E3E3E" stroke-width="3" stroke-miterlimit="10"/>
<path d="M22.5289 24.4067C23.927 24.4067 25.0605 23.2733 25.0605 21.8752C25.0605 20.477 23.927 19.3436 22.5289 19.3436C21.1307 19.3436 19.9973 20.477 19.9973 21.8752C19.9973 23.2733 21.1307 24.4067 22.5289 24.4067Z" stroke="#3E3E3E" stroke-width="3" stroke-miterlimit="10"/>
<path d="M22.5126 13.2311C22.8366 13.2406 23.1515 13.1234 23.3905 12.9044C23.5628 12.7402 23.6822 12.5284 23.7335 12.296L27 2.75769C27 2.75769 26.8612 1.96556 25.6934 2.01047H2.82754C2.82754 2.01047 1.79858 1.82673 2.0354 2.9986L5.30195 12.5818C5.38112 12.7679 5.50959 12.9289 5.67352 13.0473C5.86587 13.183 6.09553 13.2557 6.33091 13.2556L22.5126 13.2311Z" stroke="#3E3E3E" stroke-width="3" stroke-miterlimit="10"/>
<path d="M23.2884 13.7251C23.2884 13.7251 24.4725 15.1175 23.2884 16.175C22.8686 16.4651 22.3648 16.6086 21.8552 16.5834H3.02355C3.02355 16.5834 1.79859 17.3265 3.02355 17.9267H21.8552C22.6912 17.966 23.5166 17.7277 24.203 17.2489C24.5882 16.97 24.9144 16.6175 25.1626 16.2118C25.2754 16.0027 25.3579 15.7786 25.4076 15.5462C25.5167 14.9858 25.4556 14.4056 25.232 13.8803C25.1667 13.7782 25.1013 13.668 25.0278 13.5577C24.9543 13.4475 24.8318 13.2637 24.7338 13.129L24.2929 12.6145L23.2884 13.7251Z" fill="#3E3E3E"/>
</svg>
