<svg xmlns="http://www.w3.org/2000/svg" viewBox="0 0 38 38"><defs><style>.cls-1{fill:#6c6c6c;}.cls-2{fill:#fff;}.cls-3{fill:none;}</style></defs><g id="Layer_2" data-name="Layer 2"><g id="Layer_4" data-name="Layer 4"><rect class="cls-1" width="38" height="38" rx="6.29"/><path class="cls-2" d="M16.54,27H14A11.82,11.82,0,0,1,9,25.23,8.15,8.15,0,0,0,15,23.56a4.13,4.13,0,0,1-3.74-2.74c0-.08,0-.09.07-.07A3.57,3.57,0,0,0,13,20.66a4.07,4.07,0,0,1-3.21-3.94c0-.07,0-.07.07,0a4.18,4.18,0,0,0,1.73.47,4.12,4.12,0,0,1-1.22-5.41A11.59,11.59,0,0,0,18.64,16c.05,0,.07,0,.06-.07a4,4,0,0,1,0-1.47A4.16,4.16,0,0,1,22.21,11h.91a4.45,4.45,0,0,1,2.46,1.23,6.22,6.22,0,0,0,2.61-.93,4.12,4.12,0,0,1-1.73,2.22,8,8,0,0,0,2.27-.62,7.85,7.85,0,0,1-1.92,2c-.21.53,0,1.51-.2,2.17A11.52,11.52,0,0,1,16.54,27Z"/><path class="cls-3" d="M22.21,11c0,.05,0,0-.05,0a3.79,3.79,0,0,0-1.39.45,4,4,0,0,0-2.11,2.95,3.83,3.83,0,0,0,.05,1.47c0,.06,0,.07-.07.07a12.16,12.16,0,0,1-2.46-.41,11.65,11.65,0,0,1-2.65-1.12,11.53,11.53,0,0,1-2.41-1.87c-.24-.25-.47-.5-.69-.76l-.06-.07a4,4,0,0,0-.44,2.94,4.14,4.14,0,0,0,1.66,2.47l-.22,0a4,4,0,0,1-1.51-.45s-.07,0-.07,0a4,4,0,0,0,1.57,3.17,3.91,3.91,0,0,0,1.58.75l.06,0s-.06,0-.09,0a4.1,4.1,0,0,1-1.6.05c-.1,0-.1,0-.07.07a4.05,4.05,0,0,0,2.24,2.4,3.81,3.81,0,0,0,1.41.32.18.18,0,0,1,.09,0,8.12,8.12,0,0,1-5.93,1.67s0,0,0,.05a11.57,11.57,0,0,0,3,1.34,11.79,11.79,0,0,0,1.77.35H9.08C9,27,9,27,9,26.93V11.08C9,11,9,11,9.08,11Z"/><path class="cls-3" d="M16.54,27c0-.05,0,0,.07,0a11.82,11.82,0,0,0,1.19-.2,10.72,10.72,0,0,0,4.72-2.28,11.61,11.61,0,0,0,3.12-4.1,12,12,0,0,0,1-3.4,10.61,10.61,0,0,0,.09-1.87.2.2,0,0,1,.09-.2A8.07,8.07,0,0,0,28.67,13l.06-.1a7.67,7.67,0,0,1-2.27.62,4.17,4.17,0,0,0,1.73-2.22l-.38.21a8.46,8.46,0,0,1-2.13.76.11.11,0,0,1-.11,0A4,4,0,0,0,23.23,11a.5.5,0,0,1-.12,0h5.61c.06,0,.07,0,.07.07V26.94c0,.06,0,.06-.07.06Z"/></g></g></svg>