<svg width="75" height="48" viewBox="0 0 75 48" fill="none" xmlns="http://www.w3.org/2000/svg">
<g clip-path="url(#clip0_26_2)">
<path d="M64.1596 5.30318C60.2605 6.04598 57.6724 11.142 57.6724 11.142C57.1603 0.392828 46.5281 0 46.5281 0C46.5281 0 45.5516 11.6063 57.1603 14.8489C57.1603 14.8489 58.3109 10.0992 64.6 7.42445L64.1596 5.30318Z" fill="#FFA92E"/>
<path d="M56.4262 17.0023C56.9862 16.9712 57.5397 16.8619 58.0719 16.6773C58.567 16.5059 59.2123 16.1059 60.4824 15.3203L61.5067 14.6775C64.8425 13.1919 67.0003 13.4454 68.3695 13.9632C69.6702 14.5481 70.9348 15.2172 72.1559 15.9667V15.9667C61.0868 29.6049 74.9864 36.1651 74.9864 36.1651C73.5182 43.3075 64.1767 51.5211 56.4126 46.3287C56.4126 46.3287 51.4926 50.3177 45.2205 45.943C44.8005 45.6252 44.2304 45.1716 43.5885 44.5859C41.8015 42.9464 40.2695 41.026 39.0474 38.8935C38.4568 37.8543 36.7257 34.7331 36.2546 30.8727C35.6502 25.9409 36.794 16.9523 42.9568 14.2525C45.637 13.0776 49.2869 13.3669 54.1967 16.3595C54.5525 16.5479 54.9253 16.6986 55.3098 16.8095C55.6751 16.9113 56.049 16.9759 56.4262 17.0023V17.0023Z" fill="#FFA92E"/>
</g>
<path d="M5.1 40.12C4.04 40.12 3.23 39.81 2.67 39.19C2.11 38.55 1.83 37.73 1.83 36.73V25.06H5.25V36.43C5.25 36.89 5.32 37.2 5.46 37.36C5.6 37.52 5.81 37.6 6.09 37.6C6.17 37.6 6.25 37.6 6.33 37.6C6.43 37.6 6.52 37.59 6.6 37.57C6.68 37.57 6.77 37.56 6.87 37.54L7.23 39.7C7.09 39.78 6.91 39.85 6.69 39.91C6.51 39.97 6.28 40.02 6 40.06C5.74 40.1 5.44 40.12 5.1 40.12ZM3.6 18.4C4.24 18.4 4.73 18.59 5.07 18.97C5.41 19.35 5.58 19.84 5.58 20.44C5.58 21.04 5.4 21.54 5.04 21.94C4.7 22.34 4.19 22.54 3.51 22.54C2.87 22.54 2.37 22.35 2.01 21.97C1.67 21.57 1.5 21.09 1.5 20.53C1.5 19.91 1.67 19.4 2.01 19C2.37 18.6 2.9 18.4 3.6 18.4ZM20.6428 23.77C20.1628 23.25 19.6528 22.86 19.1128 22.6C18.5928 22.32 17.9828 22.18 17.2828 22.18C16.4228 22.18 15.6928 22.38 15.0928 22.78C14.5128 23.16 14.0428 23.7 13.6828 24.4C13.3228 25.08 13.0628 25.88 12.9028 26.8C12.7428 27.72 12.6628 28.71 12.6628 29.77C12.6628 30.83 12.7328 31.82 12.8728 32.74C13.0328 33.66 13.2928 34.47 13.6528 35.17C14.0328 35.87 14.5328 36.42 15.1528 36.82C15.7928 37.22 16.5928 37.42 17.5528 37.42C18.0128 37.42 18.4528 37.38 18.8728 37.3C19.2928 37.22 19.6728 37.14 20.0128 37.06C20.3728 36.96 20.6628 36.87 20.8828 36.79C21.1228 36.71 21.2728 36.66 21.3328 36.64L22.1728 39.16L21.7828 39.31C21.5228 39.41 21.1528 39.53 20.6728 39.67C20.2128 39.79 19.6528 39.9 18.9928 40C18.3528 40.12 17.6428 40.18 16.8628 40.18C14.1828 40.18 12.1628 39.33 10.8028 37.63C9.46281 35.91 8.79281 33.4 8.79281 30.1C8.79281 28.52 8.97281 27.08 9.33281 25.78C9.69281 24.46 10.2328 23.33 10.9528 22.39C11.6928 21.45 12.6128 20.72 13.7128 20.2C14.8328 19.68 16.1428 19.42 17.6428 19.42C18.8428 19.42 19.8228 19.64 20.5828 20.08C21.3628 20.52 21.9928 21.02 22.4728 21.58L20.6428 23.77ZM35.7483 32.77C35.7483 33.97 35.8183 34.98 35.9583 35.8C36.1183 36.6 36.2883 37.25 36.4683 37.75C36.6883 38.35 36.9283 38.82 37.1883 39.16L34.5183 40.24C34.2583 39.98 34.0183 39.67 33.7983 39.31C33.6183 38.99 33.4483 38.61 33.2883 38.17C33.1283 37.71 33.0283 37.17 32.9883 36.55C32.6483 37.75 32.0983 38.66 31.3383 39.28C30.5983 39.88 29.5883 40.18 28.3083 40.18C27.3683 40.18 26.5483 40.01 25.8483 39.67C25.1683 39.31 24.5983 38.81 24.1383 38.17C23.6783 37.51 23.3383 36.72 23.1183 35.8C22.8983 34.88 22.7883 33.86 22.7883 32.74C22.7883 31.6 22.9583 30.55 23.2983 29.59C23.6583 28.61 24.1483 27.77 24.7683 27.07C25.4083 26.37 26.1683 25.82 27.0483 25.42C27.9283 25.02 28.8983 24.82 29.9583 24.82C30.5583 24.82 31.1783 24.87 31.8183 24.97C32.4783 25.05 33.0883 25.14 33.6483 25.24C34.2083 25.34 34.6783 25.44 35.0583 25.54C35.4583 25.62 35.6883 25.67 35.7483 25.69V32.77ZM28.8783 37.78C29.3783 37.78 29.8383 37.61 30.2583 37.27C30.6783 36.93 31.0383 36.49 31.3383 35.95C31.6583 35.39 31.8983 34.76 32.0583 34.06C32.2383 33.34 32.3283 32.61 32.3283 31.87V27.55C32.1283 27.49 31.8283 27.42 31.4283 27.34C31.0283 27.26 30.6683 27.22 30.3483 27.22C29.5883 27.22 28.9583 27.35 28.4583 27.61C27.9783 27.87 27.5883 28.23 27.2883 28.69C26.9883 29.15 26.7783 29.7 26.6583 30.34C26.5383 30.98 26.4783 31.68 26.4783 32.44C26.4783 33.14 26.4983 33.81 26.5383 34.45C26.5783 35.09 26.6783 35.66 26.8383 36.16C27.0183 36.66 27.2683 37.06 27.5883 37.36C27.9083 37.64 28.3383 37.78 28.8783 37.78ZM44.1823 24.7C44.7623 24.7 45.3323 24.76 45.8923 24.88C46.4523 25 46.9523 25.14 47.3923 25.3C47.9123 25.48 48.3923 25.67 48.8323 25.87L47.8123 28.21C47.4123 28.03 47.0123 27.87 46.6123 27.73C46.2723 27.61 45.8923 27.5 45.4723 27.4C45.0723 27.28 44.6723 27.22 44.2723 27.22C43.8123 27.22 43.4123 27.33 43.0723 27.55C42.7523 27.77 42.5923 28.1 42.5923 28.54C42.5923 29.68 43.4223 30.57 45.0823 31.21C45.7023 31.45 46.2623 31.71 46.7623 31.99C47.2623 32.25 47.6823 32.56 48.0223 32.92C48.3823 33.28 48.6523 33.7 48.8323 34.18C49.0123 34.64 49.1023 35.19 49.1023 35.83C49.1023 36.39 48.9823 36.94 48.7423 37.48C48.5223 38.02 48.1823 38.5 47.7223 38.92C47.2823 39.34 46.7323 39.68 46.0723 39.94C45.4323 40.18 44.7023 40.3 43.8823 40.3C43.2223 40.3 42.5723 40.22 41.9323 40.06C41.2923 39.92 40.7123 39.76 40.1923 39.58C39.6923 39.4 39.2923 39.23 38.9923 39.07L38.5423 38.86L39.6523 36.34L40.0423 36.55C40.3023 36.71 40.6323 36.88 41.0323 37.06C41.4323 37.24 41.8623 37.41 42.3223 37.57C42.7823 37.71 43.2023 37.78 43.5823 37.78C44.2823 37.78 44.8023 37.64 45.1423 37.36C45.4823 37.08 45.6523 36.71 45.6523 36.25C45.6523 35.73 45.4623 35.26 45.0823 34.84C44.7223 34.4 44.1723 34.04 43.4323 33.76C41.8923 33.18 40.7823 32.52 40.1023 31.78C39.4423 31.04 39.1123 30.08 39.1123 28.9C39.1123 28.34 39.2423 27.81 39.5023 27.31C39.7623 26.79 40.1123 26.34 40.5523 25.96C41.0123 25.56 41.5523 25.25 42.1723 25.03C42.7923 24.81 43.4623 24.7 44.1823 24.7ZM51.2355 32.89C51.2355 31.55 51.4155 30.37 51.7755 29.35C52.1555 28.33 52.6655 27.48 53.3055 26.8C53.9655 26.1 54.7355 25.58 55.6155 25.24C56.4955 24.88 57.4455 24.7 58.4655 24.7C59.3655 24.7 60.1255 24.81 60.7455 25.03C61.3855 25.25 61.9055 25.55 62.3055 25.93C62.7055 26.31 62.9955 26.76 63.1755 27.28C63.3755 27.8 63.4755 28.36 63.4755 28.96C63.4755 29.68 63.2755 30.37 62.8755 31.03C62.4755 31.67 61.8955 32.24 61.1355 32.74C60.3955 33.22 59.4955 33.61 58.4355 33.91C57.3755 34.19 56.1855 34.34 54.8655 34.36C54.9255 34.82 55.0155 35.26 55.1355 35.68C55.2755 36.08 55.4655 36.44 55.7055 36.76C55.9655 37.06 56.2955 37.3 56.6955 37.48C57.0955 37.66 57.5955 37.75 58.1955 37.75C58.6355 37.75 59.1055 37.7 59.6055 37.6C60.1055 37.5 60.5655 37.38 60.9855 37.24C61.4855 37.08 61.9755 36.9 62.4555 36.7L63.3555 38.83C62.8355 39.09 62.2755 39.32 61.6755 39.52C61.1555 39.7 60.5555 39.86 59.8755 40C59.1955 40.14 58.4755 40.21 57.7155 40.21C56.5555 40.21 55.5655 40.04 54.7455 39.7C53.9255 39.34 53.2555 38.84 52.7355 38.2C52.2155 37.56 51.8355 36.79 51.5955 35.89C51.3555 34.99 51.2355 33.99 51.2355 32.89ZM58.1955 27.04C57.5355 27.04 56.9855 27.2 56.5455 27.52C56.1255 27.82 55.7855 28.22 55.5255 28.72C55.2655 29.2 55.0755 29.75 54.9555 30.37C54.8555 30.97 54.7955 31.58 54.7755 32.2C55.7355 32.16 56.5455 32.04 57.2055 31.84C57.8855 31.62 58.4355 31.36 58.8555 31.06C59.2755 30.74 59.5755 30.4 59.7555 30.04C59.9555 29.68 60.0555 29.32 60.0555 28.96C60.0555 28.38 59.8855 27.92 59.5455 27.58C59.2055 27.22 58.7555 27.04 58.1955 27.04Z" fill="#2D2D2D"/>
<defs>
<clipPath id="clip0_26_2">
<rect width="38.8889" height="48" fill="white" transform="translate(36.1111)"/>
</clipPath>
</defs>
</svg>
