<svg width="29" height="29" viewBox="0 0 29 29" fill="none" xmlns="http://www.w3.org/2000/svg">
<path d="M14.5 27C21.4036 27 27 21.4036 27 14.5C27 7.59644 21.4036 2 14.5 2C7.59644 2 2 7.59644 2 14.5C2 21.4036 7.59644 27 14.5 27Z" stroke="#3E3E3E" stroke-width="3" stroke-miterlimit="10"/>
<path d="M14.4493 18.0765C17.0874 18.0765 19.226 15.9379 19.226 13.2999C19.226 10.6618 17.0874 8.52316 14.4493 8.52316C11.8112 8.52316 9.67261 10.6618 9.67261 13.2999C9.67261 15.9379 11.8112 18.0765 14.4493 18.0765Z" fill="#3E3E3E"/>
<path d="M10.18 25.967C13.3177 27.5493 20.223 27.2836 22.3457 24.2653C20.7485 16.8794 7.7887 17.1541 6.65723 24.6624C7.84543 24.9819 9.01572 25.6267 10.18 25.967Z" fill="#3E3E3E"/>
</svg>
